<?xml version="1.0" standalone="no"?>
<!DOCTYPE svg PUBLIC "-//W3C//DTD SVG 1.1//EN" "http://www.w3.org/Graphics/SVG/1.1/DTD/svg11.dtd">
<svg version="1.1" width="1200" height="312"
     xmlns="http://www.w3.org/2000/svg" xmlns:xlink="http://www.w3.org/1999/xlink">
<style type="text/css">
    .func_g:hover { stroke:black; stroke-width:0.5; cursor:pointer; }
</style>
<svg class="func_g" x="0.0" y="120" width="1198.9998115738586" height="23"><g>
    <title>~:0:&lt;built-in method builtins.exec&gt; 100.00% (1 1 1.1e-06 1.9105626260000002)</title>
    <rect height="100%" width="100%" fill="rgb(255, 215, 125)" rx="2" ry="2" />
    <text alignment-baseline="central" x="4.0" y="12.0" font-size="12px" fill="rgb(0,0,0)">&lt;built-in method builtins.exec&gt;</text>
</g></svg>
<svg class="func_g" x="0.0" y="96" width="1198.9991206780069" height="23"><g>
    <title>1.py:9:&lt;module&gt; 100.00% (1 1 0.000336147 1.9105615260000002)</title>
    <rect height="100%" width="100%" fill="rgb(255, 165, 95)" rx="2" ry="2" />
    <text alignment-baseline="central" x="4.0" y="12.0" font-size="12px" fill="rgb(0,0,0)">&lt;module&gt;</text>
</g></svg>
<svg class="func_g" x="0.0" y="72" width="1198.7879157004013" height="23"><g>
    <title>1.py:31:main 99.98% (1 1 0.005869115 1.9102252590000002)</title>
    <rect height="100%" width="100%" fill="rgb(255, 140, 79)" rx="2" ry="2" />
    <text alignment-baseline="central" x="4.0" y="12.0" font-size="12px" fill="rgb(0,0,0)">main</text>
</g></svg>
<svg class="func_g" x="0.0" y="48" width="6.237767158473585" height="23"><g>
    <title>1.py:12:make_tree 0.60% (1 1 4.79e-07 0.011523508)</title>
    <rect height="100%" width="100%" fill="rgb(255, 165, 95)" rx="2" ry="2" />
    <text alignment-baseline="central" x="4.0" y="12.0" font-size="12px" fill="rgb(0,0,0)">make_tree</text>
</g></svg>
<svg class="func_g" x="0.0" y="24" width="6.237466304734524" height="23"><g>
    <title>1.py:12:make_tree 0.60% (78152 1067 0.011523029 0.011523029)</title>
    <rect height="100%" width="100%" fill="rgb(71, 230, 126)" rx="2" ry="2" />
    <text alignment-baseline="central" x="4.0" y="12.0" font-size="12px" fill="rgb(0,0,0)">make_tree</text>
</g></svg>
<svg class="func_g" x="7.237767158473585" y="48" width="4.962371531959687" height="23"><g>
    <title>1.py:19:check_tree 0.50% (1 1 4.0000000000000003e-07 0.009492905000000001)</title>
    <rect height="100%" width="100%" fill="rgb(255, 240, 141)" rx="2" ry="2" />
    <text alignment-baseline="central" x="4.0" y="12.0" font-size="12px" fill="rgb(0,0,0)">check_tree</text>
</g></svg>
<svg class="func_g" x="7.237767158473585" y="24" width="4.96212029710452" height="23"><g>
    <title>1.py:19:check_tree 0.50% (66895 913 0.009492505000000002 0.009492505000000002)</title>
    <rect height="100%" width="100%" fill="rgb(44, 255, 210)" rx="2" ry="2" />
    <text alignment-baseline="central" x="4.0" y="12.0" font-size="12px" fill="rgb(0,0,0)">check_tree</text>
</g></svg>
<svg class="func_g" x="13.200138690433272" y="48" width="1181.8286051437806" height="23"><g>
    <title>1.py:27:make_check 98.57% (43681 43681 0.029835259000000003 1.8832237340000002)</title>
    <rect height="100%" width="100%" fill="rgb(255, 140, 79)" rx="2" ry="2" />
    <text alignment-baseline="central" x="4.0" y="12.0" font-size="12px" fill="rgb(0,0,0)">make_check</text>
</g></svg>
<svg class="func_g" x="13.200138690433272" y="24" width="591.4760223259979" height="23"><g>
    <title>1.py:12:make_tree 49.37% (43681 43681 0.011077056 0.943302269)</title>
    <rect height="100%" width="100%" fill="rgb(255, 165, 95)" rx="2" ry="2" />
    <text alignment-baseline="central" x="4.0" y="12.0" font-size="12px" fill="rgb(0,0,0)">make_tree</text>
</g></svg>
<svg class="func_g" x="13.200138690433272" y="0" width="584.5186659264212" height="23"><g>
    <title>1.py:12:make_tree 48.79% (6322548 86297 0.932225213 0.932225213)</title>
    <rect height="100%" width="100%" fill="rgb(71, 230, 126)" rx="2" ry="2" />
    <text alignment-baseline="central" x="4.0" y="12.0" font-size="12px" fill="rgb(0,0,0)">make_tree</text>
</g></svg>
<svg class="func_g" x="605.6761610164311" y="24" width="570.6134403834862" height="23"><g>
    <title>1.py:19:check_tree 47.63% (43681 43681 0.011313783 0.910086206)</title>
    <rect height="100%" width="100%" fill="rgb(255, 240, 141)" rx="2" ry="2" />
    <text alignment-baseline="central" x="4.0" y="12.0" font-size="12px" fill="rgb(0,0,0)">check_tree</text>
</g></svg>
<svg class="func_g" x="605.6761610164311" y="0" width="563.5073988000121" height="23"><g>
    <title>1.py:19:check_tree 47.04% (6333805 86451 0.898772423 0.898772423)</title>
    <rect height="100%" width="100%" fill="rgb(44, 255, 210)" rx="2" ry="2" />
    <text alignment-baseline="central" x="4.0" y="12.0" font-size="12px" fill="rgb(0,0,0)">check_tree</text>
</g></svg>
<svg class="func_g" x="0.21112960714909215" y="168" width="598.7137894844715" height="23"><g>
    <title>1.py:12:make_tree 49.98% (43682 6444382 0.954825777 0.954825777)</title>
    <rect height="100%" width="100%" fill="rgb(255, 165, 95)" rx="2" ry="2" />
    <text alignment-baseline="central" x="4.0" y="12.0" font-size="12px" fill="rgb(0,0,0)">make_tree</text>
</g></svg>
<svg class="func_g" x="0.21112960714909215" y="192" width="297.1073315367686" height="23"><g>
    <title>1.py:12:make_tree 49.40% (6400700 87364 0.9437482420000001 0.9437482420000001)</title>
    <rect height="100%" width="100%" fill="rgb(211, 211, 211)" rx="2" ry="2" />
    <text alignment-baseline="central" x="4.0" y="12.0" font-size="12px" fill="rgb(0,0,0)">make_tree</text>
</g></svg>
<svg class="func_g" x="0.21112960714909215" y="216" width="147.1839882193903" height="23"><g>
    <title>1.py:12:make_tree 49.40% (6400700 87364 0.9437482420000001 0.9437482420000001)</title>
    <rect height="100%" width="100%" fill="rgb(211, 211, 211)" rx="2" ry="2" />
    <text alignment-baseline="central" x="4.0" y="12.0" font-size="12px" fill="rgb(0,0,0)">make_tree</text>
</g></svg>
<svg class="func_g" x="148.3951178265394" y="216" width="147.11396312706472" height="23"><g>
    <title>1.py:27:make_check 0.58% (43681 43681 0.011077056 0.943302269)</title>
    <rect height="100%" width="100%" fill="rgb(218, 218, 218)" rx="2" ry="2" />
    <text alignment-baseline="central" x="4.0" y="12.0" font-size="12px" fill="rgb(0,0,0)">make_check</text>
</g></svg>
<svg class="func_g" x="148.3951178265394" y="240" width="147.11396312706472" height="23"><g>
    <title>1.py:31:main 1.56% (43681 43681 0.029835259000000003 1.8832237340000002)</title>
    <rect height="100%" width="100%" fill="rgb(218, 218, 218)" rx="2" ry="2" />
    <text alignment-baseline="central" x="4.0" y="12.0" font-size="12px" fill="rgb(0,0,0)">main</text>
</g></svg>
<svg class="func_g" x="148.3951178265394" y="264" width="147.11396312706472" height="23"><g>
    <title>1.py:9:&lt;module&gt; 0.31% (1 1 0.005869115 1.9102252590000002)</title>
    <rect height="100%" width="100%" fill="rgb(211, 211, 211)" rx="2" ry="2" />
    <text alignment-baseline="central" x="4.0" y="12.0" font-size="12px" fill="rgb(0,0,0)">&lt;module&gt;</text>
</g></svg>
<svg class="func_g" x="148.3951178265394" y="288" width="147.11396312706472" height="23"><g>
    <title>~:0:&lt;built-in method builtins.exec&gt; 0.02% (1 1 0.000336147 1.9105615260000002)</title>
    <rect height="100%" width="100%" fill="rgb(197, 197, 197)" rx="2" ry="2" />
    <text alignment-baseline="central" x="4.0" y="12.0" font-size="12px" fill="rgb(0,0,0)">&lt;built-in method builtins.exec&gt;</text>
</g></svg>
<svg class="func_g" x="296.50908095360415" y="216" width="1" height="23"><g>
    <title>1.py:31:main 0.00% (1 1 4.79e-07 0.011523508)</title>
    <rect height="100%" width="100%" fill="rgb(218, 218, 218)" rx="2" ry="2" />
    <text alignment-baseline="central" x="4.0" y="12.0" font-size="12px" fill="rgb(0,0,0)">main</text>
</g></svg>
<svg class="func_g" x="296.50908095360415" y="240" width="1" height="23"><g>
    <title>1.py:9:&lt;module&gt; 0.31% (1 1 0.005869115 1.9102252590000002)</title>
    <rect height="100%" width="100%" fill="rgb(211, 211, 211)" rx="2" ry="2" />
    <text alignment-baseline="central" x="4.0" y="12.0" font-size="12px" fill="rgb(0,0,0)">&lt;module&gt;</text>
</g></svg>
<svg class="func_g" x="296.50908095360415" y="264" width="1" height="23"><g>
    <title>~:0:&lt;built-in method builtins.exec&gt; 0.02% (1 1 0.000336147 1.9105615260000002)</title>
    <rect height="100%" width="100%" fill="rgb(197, 197, 197)" rx="2" ry="2" />
    <text alignment-baseline="central" x="4.0" y="12.0" font-size="12px" fill="rgb(0,0,0)">&lt;built-in method builtins.exec&gt;</text>
</g></svg>
<svg class="func_g" x="298.3184611439177" y="192" width="296.96645941107784" height="23"><g>
    <title>1.py:27:make_check 0.58% (43681 43681 0.011077056 0.943302269)</title>
    <rect height="100%" width="100%" fill="rgb(218, 218, 218)" rx="2" ry="2" />
    <text alignment-baseline="central" x="4.0" y="12.0" font-size="12px" fill="rgb(0,0,0)">make_check</text>
</g></svg>
<svg class="func_g" x="298.3184611439177" y="216" width="296.96645941107784" height="23"><g>
    <title>1.py:31:main 1.56% (43681 43681 0.029835259000000003 1.8832237340000002)</title>
    <rect height="100%" width="100%" fill="rgb(218, 218, 218)" rx="2" ry="2" />
    <text alignment-baseline="central" x="4.0" y="12.0" font-size="12px" fill="rgb(0,0,0)">main</text>
</g></svg>
<svg class="func_g" x="298.3184611439177" y="240" width="296.96645941107784" height="23"><g>
    <title>1.py:9:&lt;module&gt; 0.31% (1 1 0.005869115 1.9102252590000002)</title>
    <rect height="100%" width="100%" fill="rgb(211, 211, 211)" rx="2" ry="2" />
    <text alignment-baseline="central" x="4.0" y="12.0" font-size="12px" fill="rgb(0,0,0)">&lt;module&gt;</text>
</g></svg>
<svg class="func_g" x="298.3184611439177" y="264" width="296.96645941107784" height="23"><g>
    <title>~:0:&lt;built-in method builtins.exec&gt; 0.02% (1 1 0.000336147 1.9105615260000002)</title>
    <rect height="100%" width="100%" fill="rgb(197, 197, 197)" rx="2" ry="2" />
    <text alignment-baseline="central" x="4.0" y="12.0" font-size="12px" fill="rgb(0,0,0)">&lt;built-in method builtins.exec&gt;</text>
</g></svg>
<svg class="func_g" x="596.2849205549954" y="192" width="2.6399985366251997" height="23"><g>
    <title>1.py:31:main 0.00% (1 1 4.79e-07 0.011523508)</title>
    <rect height="100%" width="100%" fill="rgb(218, 218, 218)" rx="2" ry="2" />
    <text alignment-baseline="central" x="4.0" y="12.0" font-size="12px" fill="rgb(0,0,0)">main</text>
</g></svg>
<svg class="func_g" x="596.2849205549954" y="216" width="2.6399985366251997" height="23"><g>
    <title>1.py:9:&lt;module&gt; 0.31% (1 1 0.005869115 1.9102252590000002)</title>
    <rect height="100%" width="100%" fill="rgb(211, 211, 211)" rx="2" ry="2" />
    <text alignment-baseline="central" x="4.0" y="12.0" font-size="12px" fill="rgb(0,0,0)">&lt;module&gt;</text>
</g></svg>
<svg class="func_g" x="596.2849205549954" y="240" width="2.6399985366251997" height="23"><g>
    <title>~:0:&lt;built-in method builtins.exec&gt; 0.02% (1 1 0.000336147 1.9105615260000002)</title>
    <rect height="100%" width="100%" fill="rgb(197, 197, 197)" rx="2" ry="2" />
    <text alignment-baseline="central" x="4.0" y="12.0" font-size="12px" fill="rgb(0,0,0)">&lt;built-in method builtins.exec&gt;</text>
</g></svg>
<svg class="func_g" x="599.9249190916206" y="168" width="576.5758119154459" height="23"><g>
    <title>1.py:19:check_tree 48.13% (43682 6444382 0.919579111 0.919579111)</title>
    <rect height="100%" width="100%" fill="rgb(255, 240, 141)" rx="2" ry="2" />
    <text alignment-baseline="central" x="4.0" y="12.0" font-size="12px" fill="rgb(0,0,0)">check_tree</text>
</g></svg>
<svg class="func_g" x="599.9249190916206" y="192" width="286.0003359317922" height="23"><g>
    <title>1.py:19:check_tree 47.54% (6400700 87364 0.908264928 0.908264928)</title>
    <rect height="100%" width="100%" fill="rgb(190, 190, 190)" rx="2" ry="2" />
    <text alignment-baseline="central" x="4.0" y="12.0" font-size="12px" fill="rgb(0,0,0)">check_tree</text>
</g></svg>
<svg class="func_g" x="599.9249190916206" y="216" width="141.61191539825083" height="23"><g>
    <title>1.py:19:check_tree 47.54% (6400700 87364 0.908264928 0.908264928)</title>
    <rect height="100%" width="100%" fill="rgb(190, 190, 190)" rx="2" ry="2" />
    <text alignment-baseline="central" x="4.0" y="12.0" font-size="12px" fill="rgb(0,0,0)">check_tree</text>
</g></svg>
<svg class="func_g" x="742.5368344898714" y="216" width="141.89788476252502" height="23"><g>
    <title>1.py:27:make_check 0.59% (43681 43681 0.011313783 0.910086206)</title>
    <rect height="100%" width="100%" fill="rgb(218, 218, 218)" rx="2" ry="2" />
    <text alignment-baseline="central" x="4.0" y="12.0" font-size="12px" fill="rgb(0,0,0)">make_check</text>
</g></svg>
<svg class="func_g" x="742.5368344898714" y="240" width="141.89788476252502" height="23"><g>
    <title>1.py:31:main 1.56% (43681 43681 0.029835259000000003 1.8832237340000002)</title>
    <rect height="100%" width="100%" fill="rgb(218, 218, 218)" rx="2" ry="2" />
    <text alignment-baseline="central" x="4.0" y="12.0" font-size="12px" fill="rgb(0,0,0)">main</text>
</g></svg>
<svg class="func_g" x="742.5368344898714" y="264" width="141.89788476252502" height="23"><g>
    <title>1.py:9:&lt;module&gt; 0.31% (1 1 0.005869115 1.9102252590000002)</title>
    <rect height="100%" width="100%" fill="rgb(211, 211, 211)" rx="2" ry="2" />
    <text alignment-baseline="central" x="4.0" y="12.0" font-size="12px" fill="rgb(0,0,0)">&lt;module&gt;</text>
</g></svg>
<svg class="func_g" x="742.5368344898714" y="288" width="141.89788476252502" height="23"><g>
    <title>~:0:&lt;built-in method builtins.exec&gt; 0.02% (1 1 0.000336147 1.9105615260000002)</title>
    <rect height="100%" width="100%" fill="rgb(197, 197, 197)" rx="2" ry="2" />
    <text alignment-baseline="central" x="4.0" y="12.0" font-size="12px" fill="rgb(0,0,0)">&lt;built-in method builtins.exec&gt;</text>
</g></svg>
<svg class="func_g" x="885.4347192523963" y="216" width="1" height="23"><g>
    <title>1.py:31:main 0.00% (1 1 4.0000000000000003e-07 0.009492905000000001)</title>
    <rect height="100%" width="100%" fill="rgb(218, 218, 218)" rx="2" ry="2" />
    <text alignment-baseline="central" x="4.0" y="12.0" font-size="12px" fill="rgb(0,0,0)">main</text>
</g></svg>
<svg class="func_g" x="885.4347192523963" y="240" width="1" height="23"><g>
    <title>1.py:9:&lt;module&gt; 0.31% (1 1 0.005869115 1.9102252590000002)</title>
    <rect height="100%" width="100%" fill="rgb(211, 211, 211)" rx="2" ry="2" />
    <text alignment-baseline="central" x="4.0" y="12.0" font-size="12px" fill="rgb(0,0,0)">&lt;module&gt;</text>
</g></svg>
<svg class="func_g" x="885.4347192523963" y="264" width="1" height="23"><g>
    <title>~:0:&lt;built-in method builtins.exec&gt; 0.02% (1 1 0.000336147 1.9105615260000002)</title>
    <rect height="100%" width="100%" fill="rgb(197, 197, 197)" rx="2" ry="2" />
    <text alignment-baseline="central" x="4.0" y="12.0" font-size="12px" fill="rgb(0,0,0)">&lt;built-in method builtins.exec&gt;</text>
</g></svg>
<svg class="func_g" x="886.9252550234128" y="192" width="286.5758369576616" height="23"><g>
    <title>1.py:27:make_check 0.59% (43681 43681 0.011313783 0.910086206)</title>
    <rect height="100%" width="100%" fill="rgb(218, 218, 218)" rx="2" ry="2" />
    <text alignment-baseline="central" x="4.0" y="12.0" font-size="12px" fill="rgb(0,0,0)">make_check</text>
</g></svg>
<svg class="func_g" x="886.9252550234128" y="216" width="286.5758369576616" height="23"><g>
    <title>1.py:31:main 1.56% (43681 43681 0.029835259000000003 1.8832237340000002)</title>
    <rect height="100%" width="100%" fill="rgb(218, 218, 218)" rx="2" ry="2" />
    <text alignment-baseline="central" x="4.0" y="12.0" font-size="12px" fill="rgb(0,0,0)">main</text>
</g></svg>
<svg class="func_g" x="886.9252550234128" y="240" width="286.5758369576616" height="23"><g>
    <title>1.py:9:&lt;module&gt; 0.31% (1 1 0.005869115 1.9102252590000002)</title>
    <rect height="100%" width="100%" fill="rgb(211, 211, 211)" rx="2" ry="2" />
    <text alignment-baseline="central" x="4.0" y="12.0" font-size="12px" fill="rgb(0,0,0)">&lt;module&gt;</text>
</g></svg>
<svg class="func_g" x="886.9252550234128" y="264" width="286.5758369576616" height="23"><g>
    <title>~:0:&lt;built-in method builtins.exec&gt; 0.02% (1 1 0.000336147 1.9105615260000002)</title>
    <rect height="100%" width="100%" fill="rgb(197, 197, 197)" rx="2" ry="2" />
    <text alignment-baseline="central" x="4.0" y="12.0" font-size="12px" fill="rgb(0,0,0)">&lt;built-in method builtins.exec&gt;</text>
</g></svg>
<svg class="func_g" x="1174.5010919810745" y="192" width="1.9996390259919736" height="23"><g>
    <title>1.py:31:main 0.00% (1 1 4.0000000000000003e-07 0.009492905000000001)</title>
    <rect height="100%" width="100%" fill="rgb(218, 218, 218)" rx="2" ry="2" />
    <text alignment-baseline="central" x="4.0" y="12.0" font-size="12px" fill="rgb(0,0,0)">main</text>
</g></svg>
<svg class="func_g" x="1174.5010919810745" y="216" width="1.9996390259919736" height="23"><g>
    <title>1.py:9:&lt;module&gt; 0.31% (1 1 0.005869115 1.9102252590000002)</title>
    <rect height="100%" width="100%" fill="rgb(211, 211, 211)" rx="2" ry="2" />
    <text alignment-baseline="central" x="4.0" y="12.0" font-size="12px" fill="rgb(0,0,0)">&lt;module&gt;</text>
</g></svg>
<svg class="func_g" x="1174.5010919810745" y="240" width="1.9996390259919736" height="23"><g>
    <title>~:0:&lt;built-in method builtins.exec&gt; 0.02% (1 1 0.000336147 1.9105615260000002)</title>
    <rect height="100%" width="100%" fill="rgb(197, 197, 197)" rx="2" ry="2" />
    <text alignment-baseline="central" x="4.0" y="12.0" font-size="12px" fill="rgb(0,0,0)">&lt;built-in method builtins.exec&gt;</text>
</g></svg>
<svg class="func_g" x="1177.5007310070664" y="168" width="17.73914243429635" height="23"><g>
    <title>1.py:27:make_check 1.56% (43681 43681 0.029835259000000003 1.8832237340000002)</title>
    <rect height="100%" width="100%" fill="rgb(255, 140, 79)" rx="2" ry="2" />
    <text alignment-baseline="central" x="4.0" y="12.0" font-size="12px" fill="rgb(0,0,0)">make_check</text>
</g></svg>
<svg class="func_g" x="1177.5007310070664" y="192" width="17.73914243429635" height="23"><g>
    <title>1.py:31:main 1.56% (43681 43681 0.029835259000000003 1.8832237340000002)</title>
    <rect height="100%" width="100%" fill="rgb(218, 218, 218)" rx="2" ry="2" />
    <text alignment-baseline="central" x="4.0" y="12.0" font-size="12px" fill="rgb(0,0,0)">main</text>
</g></svg>
<svg class="func_g" x="1177.5007310070664" y="216" width="17.73914243429635" height="23"><g>
    <title>1.py:9:&lt;module&gt; 0.31% (1 1 0.005869115 1.9102252590000002)</title>
    <rect height="100%" width="100%" fill="rgb(211, 211, 211)" rx="2" ry="2" />
    <text alignment-baseline="central" x="4.0" y="12.0" font-size="12px" fill="rgb(0,0,0)">&lt;module&gt;</text>
</g></svg>
<svg class="func_g" x="1177.5007310070664" y="240" width="17.73914243429635" height="23"><g>
    <title>~:0:&lt;built-in method builtins.exec&gt; 0.02% (1 1 0.000336147 1.9105615260000002)</title>
    <rect height="100%" width="100%" fill="rgb(197, 197, 197)" rx="2" ry="2" />
    <text alignment-baseline="central" x="4.0" y="12.0" font-size="12px" fill="rgb(0,0,0)">&lt;built-in method builtins.exec&gt;</text>
</g></svg>
<svg class="func_g" x="1196.239873441363" y="168" width="2.686315642450606" height="23"><g>
    <title>1.py:31:main 0.31% (1 1 0.005869115 1.9102252590000002)</title>
    <rect height="100%" width="100%" fill="rgb(255, 140, 79)" rx="2" ry="2" />
    <text alignment-baseline="central" x="4.0" y="12.0" font-size="12px" fill="rgb(0,0,0)">main</text>
</g></svg>
<svg class="func_g" x="1196.239873441363" y="192" width="2.686315642450606" height="23"><g>
    <title>1.py:9:&lt;module&gt; 0.31% (1 1 0.005869115 1.9102252590000002)</title>
    <rect height="100%" width="100%" fill="rgb(211, 211, 211)" rx="2" ry="2" />
    <text alignment-baseline="central" x="4.0" y="12.0" font-size="12px" fill="rgb(0,0,0)">&lt;module&gt;</text>
</g></svg>
<svg class="func_g" x="1196.239873441363" y="216" width="2.686315642450606" height="23"><g>
    <title>~:0:&lt;built-in method builtins.exec&gt; 0.02% (1 1 0.000336147 1.9105615260000002)</title>
    <rect height="100%" width="100%" fill="rgb(197, 197, 197)" rx="2" ry="2" />
    <text alignment-baseline="central" x="4.0" y="12.0" font-size="12px" fill="rgb(0,0,0)">&lt;built-in method builtins.exec&gt;</text>
</g></svg>
</svg>
